<svg width="16" height="28" viewBox="0 0 16 28" fill="none" xmlns="http://www.w3.org/2000/svg">
<path d="M13.466 10.606C13.4804 10.4755 13.469 10.3434 13.4324 10.2172C13.3958 10.0911 13.3347 9.97343 13.2526 9.87092C13.1706 9.7684 13.0691 9.68306 12.954 9.61976C12.8389 9.55646 12.7125 9.51645 12.582 9.502C12.4515 9.48755 12.3194 9.49896 12.1932 9.53557C12.0671 9.57218 11.9494 9.63327 11.8469 9.71535C11.7444 9.79744 11.6591 9.89892 11.5958 10.014C11.5325 10.1291 11.4924 10.2555 11.478 10.386C11.3962 11.1202 11.0842 11.8097 10.5866 12.3558C10.0891 12.9018 9.43146 13.2765 8.708 13.426C8.44809 13.4796 8.2201 13.6342 8.0742 13.8559C7.9283 14.0775 7.87643 14.3481 7.93 14.608C7.98357 14.8679 8.1382 15.0959 8.35987 15.2418C8.58154 15.3877 8.85209 15.4396 9.112 15.386C10.2495 15.1511 11.2834 14.562 12.0656 13.7034C12.8477 12.8447 13.338 11.7604 13.466 10.606ZM1 0C0.734784 0 0.48043 0.105357 0.292894 0.292893C0.105358 0.48043 4.71776e-07 0.734784 4.71776e-07 1V11C-0.000668529 12.949 0.71019 14.8312 1.99909 16.2932C3.28799 17.7552 5.06627 18.6964 7 18.94V26H4C3.73478 26 3.48043 26.1054 3.29289 26.2929C3.10536 26.4804 3 26.7348 3 27C3 27.2652 3.10536 27.5196 3.29289 27.7071C3.48043 27.8946 3.73478 28 4 28H12C12.2652 28 12.5196 27.8946 12.7071 27.7071C12.8946 27.5196 13 27.2652 13 27C13 26.7348 12.8946 26.4804 12.7071 26.2929C12.5196 26.1054 12.2652 26 12 26H9V18.94C10.9337 18.6964 12.712 17.7552 14.0009 16.2932C15.2898 14.8312 16.0007 12.949 16 11V1C16 0.734784 15.8946 0.48043 15.7071 0.292893C15.5196 0.105357 15.2652 0 15 0H1ZM2 6V2H14V6H2ZM2 8H14V11C14 12.5913 13.3679 14.1174 12.2426 15.2426C11.1174 16.3679 9.5913 17 8 17C6.4087 17 4.88258 16.3679 3.75736 15.2426C2.63214 14.1174 2 12.5913 2 11V8Z" fill="#4F4F4F"/>
</svg>
